<?xml version="1.0" encoding="UTF-8"?>
<svg version="1.1" viewBox="0 0 1600 1600" width="1280" height="1280" xmlns="http://www.w3.org/2000/svg">
<path transform="translate(1254,106)" d="m0 0c0.962 0.159 1.92 0.317 2.92 0.481 11.5 1.94 22.4 4.92 33.5 8.64 2.9 0.975 5.82 1.92 8.73 2.87 16 5.22 31 11.3 45.9 19 0.714 0.367 1.43 0.733 2.16 1.11 9.54 4.92 18.8 10.1 27.8 15.9 1.42 0.86 1.42 0.86 2.86 1.74 5.9 3.63 11.2 7.64 16.5 12.1 2.22 1.85 4.47 3.57 6.79 5.29 7.42 5.71 14.1 12.4 20.8 18.9 0.79 0.744 0.79 0.744 1.6 1.5 1.17 1.13 2.3 2.31 3.4 3.5v2h2v2h2c1.64 1.95 3.17 3.89 4.69 5.94 0.905 1.2 1.81 2.4 2.71 3.61 0.443 0.592 0.887 1.18 1.34 1.79 1.63 2.17 3.32 4.29 5 6.41 19.4 24.9 35 56.1 43.6 86.4 0.785 2.78 1.57 5.5 2.67 8.17 2.04 5.23 3.15 10.8 4.47 16.2 0.156 0.642 0.312 1.28 0.473 1.95 2.41 9.95 4.28 19.9 5.58 30 0.131 3.27 0.131 3.27 1.51 4.45 0.216 1.42 0.371 2.85 0.5 4.28 0.124 1.36 0.124 1.36 0.25 2.75 0.124 1.44 0.124 1.44 0.25 2.91 0.124 1.34 0.124 1.34 0.25 2.71 1.4 15.8 1.91 31.5 1.88 47.3-0.00536 2.96-1.72e-5 5.93 0.00635 8.89 0.00816 17.5-0.703 34.6-3.01 52-0.179 1.38-0.357 2.75-0.534 4.13-0.354 2.73-0.713 5.46-1.08 8.19-0.477 3.59-0.944 7.19-1.41 10.8-0.264 2.01-0.528 4.02-0.793 6.02-0.179 1.38-0.179 1.38-0.361 2.78-0.835 6.17-0.835 6.17-1.95 7.28-0.308 1.35-0.563 2.7-0.795 4.06-0.151 0.865-0.302 1.73-0.458 2.62-0.244 1.42-0.244 1.42-0.494 2.87-1.98 11.2-4.27 22.3-6.66 33.5-0.659 3.07-1.31 6.13-1.97 9.2-2.12 9.95-4.3 19.9-6.62 29.8-0.696 3.06-1.38 6.12-2.06 9.19-0.171 0.766-0.341 1.53-0.517 2.32-1.05 4.74-2.05 9.48-2.93 14.3-0.412 1.87-0.925 3.73-1.46 5.57-0.997 3.55-1.73 7.05-2.41 10.7-0.949 4.91-2.04 9.74-3.38 14.6-2.14 7.76-3.94 15.6-5.75 23.4-2.05 8.9-4.18 17.8-6.61 26.6-1.28 4.88-2.33 9.8-3.4 14.7-1.32 6.03-2.87 12-4.5 17.9-1.42 5.35-2.65 10.7-3.88 16.1-1.05 4.48-2.25 8.91-3.44 13.4-2.12 7.91-4.17 15.8-6.2 23.8-0.45 1.75-0.901 3.5-1.35 5.24-0.664 2.57-1.32 5.13-1.98 7.7-0.201 0.775-0.402 1.55-0.609 2.35-1.04 4.06-1.92 8.09-2.54 12.2-4.87-2.97-8.5-6.35-12.3-10.6-0.568-0.619-1.14-1.24-1.72-1.88-4.1-4.51-7.98-9.16-11.8-13.9-3.1-3.77-6.42-7.32-9.72-10.9-2.33-2.6-4.53-5.26-6.7-7.98-4.28-5.31-8.91-10.2-13.6-15.2-4.18-4.44-8.07-9.03-11.9-13.8-3.66-4.42-7.6-8.57-11.5-12.8-2.68-2.87-5.31-5.77-7.83-8.78-1.65-1.87-3.34-3.62-5.1-5.38-8.54-8.81-8.54-8.81-9.3-13.9 0.498-3.16 1.34-5.89 2.46-8.89 0.671-2.23 1.34-4.46 2-6.69 0.349-1.08 0.699-2.16 1.06-3.28 1.02-3.29 1.75-6.57 2.45-9.94 0.516-2.2 1.19-4.28 1.93-6.41 2.37-6.87 3.93-14 5.57-21 0.175-0.751 0.349-1.5 0.53-2.28 0.342-1.47 0.681-2.95 1.02-4.43 0.718-3.11 1.49-6.1 2.5-9.13 0.926-2.79 1.48-5.44 1.94-8.34 0.456-2.84 0.976-5.43 1.91-8.15 1.54-4.75 2.5-9.59 3.53-14.5 1.5-7.01 3.03-14 4.81-20.9 0.978-3.85 1.9-7.71 2.81-11.6 0.163-0.681 0.325-1.36 0.492-2.06 1.28-5.41 2.38-10.9 3.45-16.3 0.831-4.21 1.67-8.42 2.5-12.6 0.213-1.08 0.425-2.16 0.645-3.27 0.21-1.06 0.42-2.11 0.637-3.2 0.186-0.942 0.373-1.88 0.564-2.85 0.496-2.31 1.05-4.61 1.64-6.89 1.04-4.12 1.78-8.26 2.45-12.5 0.126-0.764 0.251-1.53 0.381-2.32 0.397-2.42 0.79-4.84 1.18-7.26 0.519-3.19 1.04-6.37 1.56-9.55 0.125-0.765 0.25-1.53 0.379-2.32 0.643-3.89 1.34-7.75 2.15-11.6 1.18-5.67 1.81-11.4 2.47-17.1 0.248-2.14 0.499-4.27 0.754-6.41 0.108-0.931 0.215-1.86 0.326-2.82 0.357-2.27 0.357-2.27 1.36-4.27 1.37-8.52 1.37-17.3 1.62-25.9 0.0225-0.727 0.0449-1.45 0.0681-2.2 0.428-14.4 0.415-28.7-1.69-42.9-0.33-0.33-0.66-0.66-1-1-0.327-2.16-0.611-4.33-0.875-6.5-0.917-6.7-2.54-12.5-5.02-18.8-0.744-1.9-1.43-3.82-2.11-5.75 0.33-0.66 0.66-1.32 1-2h-2c-0.287-0.615-0.574-1.23-0.87-1.86-1.31-2.8-2.63-5.59-3.94-8.39-0.452-0.968-0.904-1.94-1.37-2.93-0.662-1.4-0.662-1.4-1.34-2.83-0.403-0.859-0.806-1.72-1.22-2.6-1.19-2.42-1.19-2.42-2.91-4.51-1.34-1.88-1.34-1.88-1.34-4.88h-2c-1.02-1.5-1.97-3.05-2.88-4.62-11-17.7-27.6-35.2-45.1-46.4-0.99-0.66-1.98-1.32-3-2v-2c-0.866-0.248-1.73-0.495-2.62-0.75-3.6-1.33-6.19-3.11-9.38-5.25-2.47-1.31-4.97-2.55-7.49-3.77-1.54-0.752-3.07-1.52-4.58-2.33-5.14-2.73-10.3-4.41-15.9-5.9-1.23-0.331-2.47-0.663-3.74-1-7.56-1.98-15-3.57-22.8-4.6-2.48-0.395-2.48-0.395-4.48-1.39-6.82-1.04-13.7-1.21-20.6-1.31-1-0.0151-2-0.0303-3.04-0.0458-20.6-0.252-40.8 0.144-61.2 3.17-0.883 0.131-1.77 0.261-2.68 0.396-9.93 1.5-19.7 3.41-29.4 5.79-2.33 0.505-4.66 0.994-7 1.47-2.43 0.64-4.67 1.59-7 2.53-1.62 0.462-3.24 0.898-4.88 1.31-7.15 1.91-14.1 4.28-21.1 6.69-1.2 0.415-2.41 0.83-3.65 1.26-7.57 2.66-15 5.56-22.4 8.74-0.825 0.351-1.65 0.701-2.5 1.06-4.71 2.03-9.08 4.35-13.5 6.94l-6 3c-1.37 0.75-2.74 1.51-4.11 2.27-0.797 0.444-1.59 0.888-2.42 1.35-1.59 0.891-3.18 1.78-4.77 2.68-10 5.63-20.1 11-30.5 15.8-3.88 1.79-7.52 3.69-11.2 5.91-2.81 0.688-2.81 0.688-5 1v2c-0.507 0.236-1.01 0.472-1.54 0.715-9.17 4.27-18.3 8.59-27.1 13.5-4.03 2.21-8.08 4.36-12.1 6.51-0.694 0.369-1.39 0.737-2.1 1.12-4.66 2.47-9.36 4.85-14.1 7.2-1.01 0.504-2.01 1.01-3.05 1.53-2.12 1.06-4.24 2.11-6.37 3.16-8.37 4.15-16.7 8.43-24.9 12.8-7.09 3.76-14.2 7.36-21.5 10.8-1.11 0.521-2.22 1.04-3.37 1.58-2.76 1.17-2.76 1.17-4.76 1.17-0.33 0.99-0.66 1.98-1 3-1.57 0.922-1.57 0.922-3.69 1.75-4.21 1.75-8.3 3.69-12.4 5.75-1.69 0.851-1.69 0.851-3.41 1.72-1.79 0.904-3.58 1.81-5.37 2.71-3.75 1.89-7.52 3.72-11.3 5.5-0.895 0.42-1.79 0.84-2.71 1.27-1.84 0.862-3.68 1.72-5.52 2.58-4.82 2.27-9.22 4.67-13.6 7.71-1.61 0.867-3.23 1.7-4.88 2.5l-2.6 1.27c-0.833 0.405-1.67 0.81-2.52 1.23-1.42 0.706-2.83 1.41-4.25 2.12-5.46 2.73-10.9 5.46-16.4 8.19-0.603 0.302-1.21 0.604-1.83 0.915-2.98 1.49-5.96 2.98-8.95 4.46l-3.16 1.57c-0.929 0.459-1.86 0.918-2.82 1.39-2.61 1.35-5.1 2.84-7.62 4.36-5.21 2.41-10.5 4.25-16 6v2c-2.79 1.34-5.58 2.67-8.38 4l-2.41 1.16-4.43 2.11c-1.79 0.734-1.79 0.734-3.79 0.734v2c-0.548 0.196-1.1 0.392-1.66 0.594-6.03 2.28-11.6 5.11-17.3 8.19-5.67 3.07-11.5 5.83-17.3 8.51-3.72 1.71-7.22 3.56-10.7 5.7-2.24 1.17-4.49 2.31-6.75 3.44-0.616 0.308-1.23 0.616-1.87 0.933-3.42 1.7-6.87 3.31-10.4 4.82-3.63 1.57-6.72 3.6-10 5.81-1.68 0.741-3.35 1.48-5.05 2.17-4.08 1.73-8 3.83-11.9 5.83-9.05 4.58-18.1 9.06-27.3 13.3-3.7 1.72-7.2 3.54-10.7 5.7-1.99 1.02-3.99 2.02-6 3-1.58 0.791-3.17 1.58-4.75 2.38-3.29 1.65-6.58 3.29-9.88 4.94-0.826 0.414-1.65 0.828-2.5 1.25-2.15 1.07-4.31 2.14-6.46 3.21-7.75 3.84-15.4 7.79-23 11.9-5.45 2.9-10.9 5.67-16.5 8.41-5.22 2.6-10.4 5.32-15.5 8.08-4.88 2.62-9.82 5.11-14.8 7.55-2.61 1.3-2.61 1.3-5.11 2.87-2.45 1.44-4.83 2.45-7.48 3.46-1.75 0.782-3.5 1.57-5.25 2.38-4.9 2.24-9.82 4.45-14.8 6.62 0-2 0-2 2-4 0.33-0.99 0.66-1.98 1-3 0.639-0.144 1.28-0.289 1.94-0.438 0.681-0.186 1.36-0.371 2.06-0.562 0.299-0.612 0.598-1.22 0.907-1.86 1.25-2.45 2.43-3.42 4.65-5.02 0.697-0.51 1.39-1.02 2.11-1.55 0.728-0.521 1.46-1.04 2.21-1.58 4.34-3.13 8.37-6.17 12.1-10 1.79-1.34 3.6-2.65 5.44-3.94 3.89-2.79 7.22-5.63 10.6-9.06 2.28-1.82 4.59-3.6 6.91-5.35 1.84-1.46 3.45-2.97 5.09-4.65 1.35-1.14 2.69-2.28 4.06-3.4 1.54-1.27 3.08-2.56 4.6-3.85 1.44-1.2 1.44-1.2 2.9-2.43 0.909-0.767 1.82-1.53 2.75-2.32 2.68-1.99 2.68-1.99 5.46-3.07 0.733-0.303 1.47-0.606 2.22-0.918l1-3c1.67-1.55 3.41-3.02 5.19-4.44l3.02-2.41c2.05-1.57 4.07-3.06 6.23-4.46 2.58-1.7 4.42-3.48 6.56-5.69 7.03-6.51 14.6-12.4 22.1-18.4 3.55-2.87 7.08-5.77 10.6-8.67l2.33-1.9 2.68-2.25c2.32-1.75 2.32-1.75 4.32-1.75l1-3c1.32-0.685 2.66-1.35 4-2 1.36-1.31 2.69-2.65 4-4 1.43-1.2 2.85-2.4 4.3-3.58 1.94-1.62 3.82-3.3 5.7-4.98 3.17-2.79 6.47-5.11 10-7.44 0.584-0.594 1.17-1.19 1.77-1.8 2.7-2.66 5.65-4.92 8.67-7.2 1.12-0.854 2.25-1.71 3.37-2.56 0.547-0.415 1.09-0.831 1.66-1.26 1.32-1.02 2.63-2.06 3.93-3.1 3.55-2.84 7.16-5.59 10.8-8.33 0.724-0.554 1.45-1.11 2.19-1.68l2.1-1.59c0.628-0.477 1.26-0.955 1.9-1.45 1.62-1.04 1.62-1.04 3.62-1.04l0.602-1.68c1.96-3.26 4.77-5.21 7.77-7.45l1.75-1.34c2.86-2.16 5.66-3.97 8.88-5.54 1.69-1.64 3.35-3.31 5-5 1.66-1.35 3.32-2.68 5-4 1.77-1.46 3.54-2.92 5.31-4.38 13-10.6 13-10.6 15.7-10.6 0.33-0.99 0.66-1.98 1-3l1.94-0.438c0.681-0.186 1.36-0.371 2.06-0.562 0.33-0.66 0.66-1.32 1-2 0.33-0.66 0.66-1.32 1-2 1.33-0.362 2.66-0.697 4-1 0.33-0.99 0.66-1.98 1-3 1.5-1.39 1.5-1.39 3.43-2.82 0.708-0.531 1.42-1.06 2.14-1.61 0.759-0.56 1.52-1.12 2.3-1.7 1.56-1.17 3.12-2.34 4.68-3.51 0.763-0.573 1.53-1.15 2.31-1.74 2.78-2.12 5.46-4.33 8.13-6.56 3.88-3.22 7.86-6.09 12.1-8.77 1.89-1.22 1.89-1.22 3.35-2.77 2.44-2.43 5.38-4.08 8.27-5.92 2.28-1.52 2.28-1.52 4.06-3.43 3.02-2.99 6.39-5.41 9.82-7.92 0.681-0.507 1.36-1.01 2.06-1.54 0.652-0.478 1.3-0.956 1.98-1.45 0.592-0.435 1.18-0.871 1.8-1.32 1.54-0.946 1.54-0.946 3.54-0.946 0.33-0.99 0.66-1.98 1-3 2.11-1.94 2.11-1.94 4.75-4 0.861-0.681 1.72-1.36 2.61-2.06 2.64-1.94 2.64-1.94 5.28-3.5 2.19-1.34 3.59-2.61 5.36-4.44 1.81-1.42 3.65-2.81 5.5-4.19 0.795-0.592 0.795-0.592 1.61-1.2 6.24-4.64 12.5-9.2 18.9-13.8 0.963-0.697 1.93-1.39 2.92-2.11 0.864-0.624 1.73-1.25 2.62-1.89 3.63-2.69 7.11-5.51 10.5-8.48 2.74-2.17 4.81-3.12 8-4.38 0.536-0.556 1.07-1.11 1.62-1.68 3.29-3.21 6.98-5.7 10.8-8.32 1.11-0.781 1.11-0.781 2.25-1.58 3.19-2.23 6.39-4.43 9.66-6.55 2.57-1.77 4.52-3.67 6.71-5.88 1.72-1.19 3.47-2.34 5.25-3.44l2.92-1.82c1.74-1.07 3.48-2.13 5.22-3.2 0.696-0.427 1.39-0.853 2.11-1.29 0.608-0.366 1.22-0.732 1.84-1.11 1.78-1.22 3.14-2.62 4.66-4.14 6.27-4.73 12.9-8.96 19.5-13.3 3.63-2.41 7.23-4.87 10.8-7.39 4.34-3.06 8.78-5.92 13.3-8.75 1.96-1.24 3.88-2.51 5.79-3.82 2.8-1.83 5.7-3.25 8.69-4.75l1.83-1.39c2.49-1.85 5.07-3.31 7.8-4.8 0.962-0.53 1.92-1.06 2.91-1.61 2.46-1.21 2.46-1.21 4.46-1.21v-2c0.501-0.245 1-0.49 1.52-0.742 4.2-2.07 8.37-4.19 12.5-6.39 17.9-9.55 36-18.8 55-25.9 0.733-0.29 1.47-0.58 2.22-0.879 5.02-1.97 10.2-3.51 15.3-5.06 2.53-0.782 5.03-1.6 7.54-2.46 7.03-2.36 14.2-4.22 21.4-6.17 1.08-0.299 2.17-0.598 3.29-0.906 0.985-0.269 1.97-0.538 2.98-0.815 2.21-0.499 2.21-0.499 3.27-1.71 1.32-0.282 2.66-0.513 4-0.719 0.804-0.128 1.61-0.255 2.44-0.387 1.71-0.263 3.42-0.526 5.12-0.789 0.804-0.128 1.61-0.255 2.44-0.387 0.742-0.114 1.49-0.228 2.25-0.346 1.77-0.211 1.77-0.211 2.75-1.37 2.48-0.361 4.94-0.667 7.43-0.938 0.746-0.085 1.49-0.17 2.26-0.258 2.39-0.272 4.79-0.539 7.18-0.805 2.39-0.266 4.78-0.534 7.16-0.805 1.49-0.169 2.98-0.335 4.46-0.498 2.98-0.338 5.64-0.744 8.5-1.7 30.2-3.27 62.1-1.02 92 4zm129 274 1 2zm3 27 1 4zm0 12v7h1v-7h-1zm-3 37 1 4zm-5 34 1 2zm-14 71 1 2zm-15 66 1 2zm-4 17 1 2z" fill="#FCFDFF"/>
<path transform="translate(175,804)" d="m0 0c8 3.55 13.4 11.6 18.7 18.2 2.95 3.6 6.05 7.03 9.18 10.5 1.88 2.07 3.72 4.16 5.55 6.27 2.76 3.17 5.59 6.28 8.44 9.38 4.16 4.56 8.09 9.26 12 14.1 3.9 4.76 8.05 9.3 12.2 13.9 0.633 0.708 1.27 1.42 1.92 2.14 0.566 0.626 1.13 1.25 1.71 1.9 1.35 1.73 1.35 1.73 2.35 4.73 0.99 0.33 1.98 0.66 3 1 1.48 1.66 2.89 3.37 4.25 5.12 2.68 3.37 5.33 6.58 8.44 9.56 4.44 4.28 7.9 9.2 11.3 14.3-0.279 7.62-2.33 14.9-4.27 22.2-0.534 2.02-1.06 4.04-1.58 6.07-1.88 7.23-3.93 14.4-6.15 21.5-3.34 10.8-6.09 21.6-8.5 32.6-1.99 9.1-4.12 18.1-6.6 27.1-1.26 4.86-2.18 9.77-3.13 14.7-0.75 3.67-1.64 7.27-2.58 10.9-2.02 7.82-3.67 15.7-5.31 23.6-0.254 1.22-0.507 2.44-0.769 3.7-1.34 6.53-2.57 13.1-3.57 19.6-0.545 2.98-1.27 5.88-2.02 8.81-0.834 3.44-1.45 6.91-2.06 10.4-0.139 0.782-0.278 1.56-0.422 2.37-0.451 2.55-0.896 5.09-1.34 7.64-0.153 0.875-0.306 1.75-0.464 2.65-2.22 12.7-4.27 25.5-6.1 38.3-0.155 1.07-0.155 1.07-0.312 2.17-6.2 43.3-5.5 88.1 15.3 128 0.918 1.96 0.918 1.96 0.918 3.96h2c0.291 0.557 0.583 1.11 0.883 1.69 2.95 5.5 6.27 10.4 10.1 15.3 0.5 0.672 1 1.34 1.52 2.04 2.35 3.11 4.92 6.03 7.48 8.96 0.603 0.709 1.21 1.42 1.83 2.15 16.4 18.8 36.2 35.7 59.2 45.9 0.728 0.324 1.46 0.647 2.21 0.98 25.3 10.7 52 12.8 79.1 12.5 2.9-0.03 5.8-0.0335 8.7-0.0368 25.5 0.953 25.5 0.953 50-4.42 1.76-0.373 3.54-0.693 5.32-0.965 1.01-0.159 2.01-0.317 3.05-0.481 1.06-0.162 2.11-0.325 3.2-0.492 8.27-1.32 16.4-2.78 24.4-5.06l2.94-0.781c4.75-1.26 9.4-2.65 14.1-4.22 1.25-0.405 2.5-0.81 3.79-1.23 8.65-2.82 17.2-5.81 25.7-9.02 0.914-0.341 1.83-0.682 2.77-1.03 0.849-0.324 1.7-0.648 2.57-0.982 0.755-0.286 1.51-0.573 2.29-0.868 2.05-0.822 2.05-0.822 3.87-2.87 1.92-0.732 3.85-1.46 5.78-2.16 3.55-1.35 6.9-3.06 10.3-4.78 0.668-0.335 1.34-0.669 2.03-1.01 4.39-2.21 8.65-4.59 12.9-7.05l6-3c1.29-0.725 2.59-1.45 3.88-2.19 4.16-2.33 8.41-4.46 12.7-6.56 6.45-3.18 12.7-6.58 18.9-10.2 4.06-2.34 8.17-4.24 12.5-6.06 1.76-0.91 3.52-1.85 5.25-2.81 0.936-0.518 1.87-1.04 2.84-1.57 0.962-0.534 1.92-1.07 2.91-1.62 1.96-1.06 3.92-2.13 5.88-3.19 2.59-1.4 5.15-2.83 7.68-4.35 2.22-1.32 4.44-2.51 6.76-3.65 0.862-0.427 1.72-0.853 2.61-1.29 1.01-0.501 2.03-1 3.07-1.52 2.67-1.33 5.33-2.67 8-4 1.39-0.695 2.78-1.39 4.17-2.09 0.659-0.33 1.32-0.659 2-0.999 17.5-8.73 17.5-8.73 20.5-10.2 2.52-1.26 5.03-2.53 7.55-3.81 0.716-0.362 1.43-0.725 2.17-1.1 1.41-0.713 2.81-1.43 4.22-2.15 3.12-1.58 6.02-2.87 9.43-3.63v-2c0.678-0.303 1.36-0.606 2.05-0.918 6.4-2.88 12.7-5.91 18.9-9.08 1.67-0.834 3.33-1.67 5-2.5 0.825-0.412 1.65-0.825 2.5-1.25 2.5-1.25 5-2.5 7.5-3.75 0.824-0.412 1.65-0.825 2.5-1.25 1.68-0.837 3.36-1.67 5.04-2.5 4-1.98 7.95-4 11.8-6.19 5.44-3.06 11-5.8 16.6-8.56 1.71-0.853 3.42-1.71 5.12-2.56 6.63-3.31 13.2-6.62 19.9-9.94 0.824-0.412 1.65-0.825 2.5-1.25 1.68-0.837 3.36-1.67 5.04-2.5 4.04-2 8.04-4.04 12-6.25 4.75-2.67 9.61-5.09 14.5-7.5 1.97-0.981 3.93-1.96 5.9-2.95 2.1-1.05 4.2-2.1 6.3-3.15 2.13-1.06 4.26-2.13 6.38-3.21 3.96-2 7.95-3.94 12-5.82 0.832-0.389 1.66-0.779 2.52-1.18 1.66-0.773 3.32-1.54 4.98-2.31 4.55-2.13 8.78-4.47 13-7.19 3.19-1.95 6.55-3.47 9.95-5 7.81-3.6 15.5-7.39 23.2-11.3 2.73-1.38 5.46-2.74 8.2-4.11 0.956-0.478 1.91-0.956 2.9-1.45 2.58-1.29 5.15-2.58 7.73-3.86 0.804-0.403 1.61-0.807 2.44-1.22 1.83-0.912 3.66-1.81 5.5-2.71 4.71-2.31 9.3-4.66 13.8-7.44 5.73-3.52 11.8-6.24 17.9-9.05 9.45-4.38 18.7-9.12 27.9-14.1 5.95-3.22 12-6.14 18.1-8.99 10-4.67 20-9.53 29.6-15 2.55-1.43 5.17-2.72 7.8-4.01 0.681-0.345 1.36-0.691 2.06-1.05 4.98-2.52 10-4.92 15.1-7.27 7.39-3.42 14.7-7.04 21.9-10.7 4.24-2.14 8.49-4.26 12.7-6.38 2.06-1.03 4.11-2.07 6.16-3.12 0.882-0.45 1.76-0.9 2.67-1.36 0.755-0.389 1.51-0.779 2.29-1.18 2.09-0.945 2.09-0.945 4.16-1.45 3.07-0.789 5.37-2.69 7.93-4.5 0.66 0.33 1.32 0.66 2 1-1.5 1.24-2.99 2.47-4.49 3.71-1.22 1.04-2.37 2.16-3.51 3.29-3.69 3-3.69 3-6 3-0.33 0.99-0.66 1.98-1 3-1.33 0.667-2.67 1.33-4 2-1.14 1.11-2.28 2.22-3.38 3.36-2.17 2.19-4.42 4.29-6.68 6.39-0.837 0.779-1.67 1.56-2.54 2.36-2.34 1.84-3.61 2.22-6.4 2.89-0.33 0.99-0.66 1.98-1 3-1.32 0.685-2.66 1.35-4 2-1.36 1.31-2.69 2.65-4 4-1.98 1.69-3.98 3.35-6 5-0.888 0.743-1.78 1.49-2.69 2.25-0.968 0.804-1.94 1.61-2.93 2.44-0.92 0.767-1.84 1.53-2.79 2.32-2.59 1.99-2.59 1.99-4.86 3.07-2.09 0.856-2.09 0.856-2.73 3.92-1.33 0.921-2.67 1.83-4.04 2.68-3.45 2.32-6.59 5.05-9.79 7.71-2.17 1.61-2.17 1.61-4.17 1.61-0.33 0.99-0.66 1.98-1 3-1.33 0.667-2.67 1.33-4 2-0.866 0.866-1.73 1.73-2.62 2.62-0.784 0.784-1.57 1.57-2.38 2.38h-2c-0.33 0.99-0.66 1.98-1 3-1.67 0.667-3.33 1.33-5 2-0.33 0.99-0.66 1.98-1 3-1.57 1.39-1.57 1.39-3.56 2.81-0.718 0.519-1.44 1.04-2.18 1.57-0.746 0.532-1.49 1.06-2.26 1.61-5.21 3.75-5.21 3.75-10 8-3.03 3.03-6.41 5.67-10 8h-2c-0.258 0.597-0.516 1.19-0.782 1.81-1.32 2.38-2.58 3.57-4.7 5.25-1.03 0.827-1.03 0.827-2.09 1.67l-2.18 1.71c-1.41 1.12-2.82 2.25-4.23 3.37-0.684 0.541-1.37 1.08-2.07 1.64-2.68 2.14-5.31 4.35-7.94 6.55-2.43 1.97-4.88 3.92-7.33 5.86-1.83 1.47-3.65 2.94-5.47 4.43-0.892 0.728-1.78 1.46-2.7 2.21-0.815 0.67-1.63 1.34-2.47 2.03-2.03 1.47-2.03 1.47-4.03 1.47l-1 3c-1.32 0.685-2.66 1.35-4 2-0.578 0.577-1.16 1.16-1.75 1.75-3.12 3.12-6.55 5.85-10.2 8.25h-2l-1 3c-1.64 1.04-3.31 2.04-5 3-0.423 0.428-0.846 0.856-1.28 1.3-2.42 2.4-5.13 4.4-7.84 6.45-1.17 0.892-2.33 1.78-3.5 2.68-0.572 0.437-1.14 0.873-1.73 1.32-2.26 1.72-4.52 3.45-6.77 5.19l-2.07 1.59c-1.8 1.42-1.8 1.42-3.26 2.93-1.92 1.91-3.98 3.55-6.11 5.23-1.18 0.934-1.18 0.934-2.38 1.89-2.06 1.43-2.06 1.43-4.06 1.43l-1 3c-1.32 0.685-2.66 1.35-4 2-1.36 1.31-2.69 2.65-4 4-12.7 11-12.7 11-16 11-0.248 0.639-0.495 1.28-0.75 1.94-1.25 2.06-1.25 2.06-3.31 2.62-0.639 0.144-1.28 0.289-1.94 0.438l-1 3c-1.37 0.959-2.75 1.91-4.16 2.8-5.24 3.42-10 7.52-14.8 11.5-0.71 0.586-1.42 1.17-2.15 1.78-1.43 1.18-2.85 2.37-4.27 3.56-0.663 0.548-1.33 1.1-2.01 1.66-0.592 0.495-1.18 0.99-1.79 1.5-1.78 1.2-1.78 1.2-3.94 1.68-0.607 0.171-1.21 0.343-1.84 0.519l-1 3c-1.33 0.955-2.67 1.9-4.06 2.77-6.3 4-12.3 8.37-17.9 13.2-3.66 2.96-7.38 5.83-11.1 8.69-5.25 4.01-10.4 8.15-15.4 12.4-6.27 4.91-6.27 4.91-9.44 4.91l-1 3c-2.21 1.82-2.21 1.82-4.94 3.69-0.896 0.623-1.79 1.25-2.71 1.89-2.35 1.43-2.35 1.43-4.35 1.43l-1 3c-1.32 0.702-2.65 1.37-4 2-0.449 0.452-0.897 0.905-1.36 1.37-1.87 1.85-3.84 3.22-6.02 4.69-4.12 2.84-8.11 5.81-12.1 8.88-4.16 3.22-8.33 6.43-12.6 9.56-0.846 0.629-1.69 1.26-2.56 1.91-2.44 1.59-2.44 1.59-5.19 2.62-0.742 0.32-1.48 0.639-2.25 0.969l-1 3c-2.1 1.44-4.17 2.74-6.38 4-3.56 2.07-6.75 4.03-9.62 7-1.98 1.43-3.98 2.82-6 4.19-4.2 2.87-8.35 5.78-12.4 8.81-3.98 2.92-8.07 5.62-12.2 8.25-5.32 3.34-10.3 6.98-15.3 10.8-6.03 4.63-12.2 8.49-18.8 12.1-3.85 2.18-7.36 4.69-10.9 7.28-2.72 1.85-5.52 3.29-8.49 4.69-1.98 0.918-1.98 0.918-4.63 2.59-2.12 1.25-2.12 1.25-4.12 1.25-0.33 0.99-0.66 1.98-1 3-1.84 0.986-3.68 1.96-5.57 2.84-2.62 1.25-5.14 2.63-7.68 4.04-9.21 5.04-18.6 9.59-28.2 13.7-3.69 1.58-7.11 3.33-10.5 5.45-2.32 1.04-4.65 2.03-7 3-1.23 0.522-1.23 0.522-2.48 1.05-3.16 1.34-6.34 2.64-9.52 3.95-0.649 0.269-1.3 0.537-1.97 0.814-11.3 4.67-22.8 8.34-34.6 11.5-2.23 0.602-4.45 1.22-6.67 1.85-6.63 1.84-13.2 3.36-20 4.32-2.86 0.448-2.86 0.448-5.88 1.45-5.14 1.52-10.5 1.98-15.8 2.61-2.08 0.247-4.16 0.499-6.24 0.754-0.914 0.108-1.83 0.215-2.77 0.326-2.09 0.144-2.09 0.144-3.11 1.36-7.66 1.1-15.3 1.32-23.1 1.56-0.656 0.0208-1.31 0.0417-1.99 0.0632-12.7 0.397-25.3 0.585-37.9 0.374-1.33-0.0189-1.33-0.0189-2.68-0.0381-13.5-0.246-26.5-2.08-39.8-4.51-3.18-0.562-6.37-1.01-9.56-1.45-10.9-1.67-21.5-4.76-32.1-8.06-1.18-0.368-1.18-0.368-2.38-0.743-4.65-1.49-9.08-3.24-13.6-5.19-1.92-0.735-3.86-1.44-5.8-2.14-6.11-2.22-12-4.57-17.8-7.6-2.76-1.42-5.56-2.68-8.39-3.95-11.4-5.24-23-10.8-33.3-18.1-1.83-1.27-3.71-2.35-5.66-3.43-3.12-1.81-3.12-1.81-4.45-3.14-2.36-2.36-5.02-4.3-7.68-6.3-5.35-4.07-10.6-8.26-15.8-12.6-2.31-1.92-2.31-1.92-5.24-3.81v-2h-2v-2c-0.639-0.268-1.28-0.536-1.94-0.812-2.06-1.19-2.06-1.19-3.06-4.19-1.32-0.688-2.66-1.35-4-2-1.61-1.59-1.61-1.59-3.19-3.5-2.59-3.08-5.25-6.06-8-9-8.98-9.96-17-21-23.8-32.5-0.625-1.04-0.625-1.04-1.26-2.11-5.82-9.75-11.3-19.4-15.7-29.9-0.5-1.13-1-2.25-1.52-3.41-3.07-7-5.82-14.1-8.33-21.3-1.02-2.93-2.11-5.83-3.21-8.73-3.7-10.2-6.08-20.7-8.23-31.3-0.661-3.21-0.661-3.21-1.67-6.27-1.69-5.76-2.24-11.8-3.04-17.7-0.331-2.43-0.665-4.86-1-7.3-0.144-1.07-0.289-2.14-0.438-3.25-0.3-1.97-0.618-3.95-1.06-5.9-2.07-9.46-1.77-18.9-1.73-28.6 0.00119-1.91 0.00164-3.82 0.00139-5.73 0.00156-3.99 0.00978-7.98 0.0233-12 0.017-5.09 0.0208-10.2 0.0201-15.3 2.73e-4 -3.94 0.00578-7.88 0.013-11.8 0.00316-1.88 0.00515-3.75 0.00589-5.63 0.00961-11.5 0.211-22.6 2.6-34 0.688-3.5 1.24-7.01 1.79-10.5 0.157-1.02 0.157-1.02 0.317-2.06 0.432-2.82 0.86-5.65 1.29-8.48 2.13-14 2.13-14 3.76-21 0.61-2.7 0.98-5.41 1.35-8.15 0.799-5.4 1.97-10.6 3.34-15.9 1.42-5.55 2.43-11.2 3.44-16.8 0.129-0.71 0.258-1.42 0.391-2.15 0.255-1.41 0.505-2.82 0.75-4.22 0.509-2.81 1.06-5.42 2.14-8.06 1.42-3.64 1.86-7.33 2.43-11.2 1.09-6.95 2.52-13.6 4.56-20.4 1.47-4.88 2.57-9.73 3.44-14.8 0.995-5.51 2.19-10.9 3.74-16.3 1.07-3.89 2.02-7.81 2.95-11.7 0.171-0.71 0.341-1.42 0.517-2.15 0.771-3.28 1.41-6.46 1.85-9.8 0.508-3.3 0.508-3.3 1.43-5.59 1.23-3.09 2.04-6.16 2.85-9.39 0.242-0.962 0.242-0.962 0.489-1.94 0.522-2.08 1.04-4.17 1.55-6.25 0.177-0.711 0.355-1.42 0.537-2.15 2.53-10.2 4.93-20.4 7.01-30.6 1.02-4.92 2.33-9.59 3.98-14.3 0.837-2.56 1.32-5.1 1.72-7.76 0.425-2.77 0.889-5.13 1.93-7.73 1.07-2.69 1.55-5.16 2-8.02 0.442-2.81 0.9-5.25 1.97-7.89 1.28-3.24 1.84-6.43 2.46-9.86 0.939-4.97 2.09-9.69 3.81-14.4 0.944-2.9 1.59-5.83 2.25-8.8 1.03-4.65 2.25-9.11 3.85-13.6 0.664-1.95 1.18-3.9 1.65-5.9zm-9 35 1 2zm-5 20 1 2zm-4 16 1 2zm-20 80 1 2zm-8 35 1 2zm-8 34 1 2zm-13 61 1 2zm-11 64v6h1v-6h-1zm-1 10v6h1v-6h-1zm0 82v5h1v-5h-1zm6 42 1 2zm1 6 1 2z" fill="#FBFCFE"/>
<path transform="translate(444 113)" d="m0 0c0.89 0.0673 1.78 0.135 2.7 0.204 2.54 0.195 5.09 0.398 7.63 0.605 1.16 0.0907 1.16 0.0907 2.35 0.183 5.4 0.454 5.4 0.454 7.64 1.57 1.45 0.221 2.91 0.393 4.36 0.541 1.36 0.14 1.36 0.14 2.75 0.284 1.48 0.147 1.48 0.147 2.99 0.297 1.53 0.157 1.53 0.157 3.1 0.318 3.29 0.337 6.58 0.668 9.87 0.999 25.1 2.54 25.1 2.54 34.6 3.62 1.27 0.144 2.54 0.289 3.85 0.438 4.65 0.659 9.17 1.71 13.7 2.84 2.43 0.569 4.76 0.957 7.24 1.22 3.56 0.438 3.56 0.438 6.04 1.3 5.07 1.63 10.2 2.63 15.5 3.7 1.59 0.332 1.59 0.332 3.21 0.67 6.44 1.33 6.44 1.33 12.9 2.36 2.91 0.406 2.91 0.406 5.6 1.34 3.91 1.25 7.77 1.82 11.8 2.4 2.95 0.559 5.74 1.26 8.63 2.08 5.92 1.65 11.9 2.82 17.9 3.96 8.37 1.62 16.6 3.49 24.7 5.89 4.72 1.37 9.43 2.46 14.3 3.36 4.84 0.908 9.33 2.07 13.9 3.75 2.1 0.655 4.06 0.953 6.24 1.18 3.46 0.404 5.57 1.16 8.75 2.44 2.35 0.639 4.7 1.24 7.06 1.81 1.43 0.349 2.85 0.698 4.28 1.05 0.754 0.184 1.51 0.367 2.28 0.557 2.46 0.605 4.92 1.23 7.38 1.85 8.62 2.19 17.2 4.29 26 6.06 2.11 0.469 4.21 1.01 6.29 1.61 4.65 1.32 9.35 2.34 14.1 3.38 7.94 1.77 15.8 3.72 23.6 5.99 4.33 1.25 8.67 2.29 13.1 3.25 2.24 0.507 4.4 1.14 6.56 1.89l2.22 0.766c3.42 1.23 6.82 2.5 10.2 3.8-1.25 4.92-2.73 7.08-6.81 10.1-3.69 2.78-6.96 5.62-10.2 8.94-2 1.67-4 3.34-6 5-0.639 0.639-1.28 1.28-1.94 1.94-1.85 1.85-3.73 3.59-5.69 5.31-0.59 0.521-1.18 1.04-1.79 1.58-1.59 1.17-1.59 1.17-3.59 1.17-0.33 0.99-0.66 1.98-1 3-0.639 0.144-1.28 0.289-1.94 0.438-0.681 0.186-1.36 0.371-2.06 0.562-0.394 0.87-0.394 0.87-0.797 1.76-1.63 3.04-3.81 4.57-6.52 6.68-3.82 3-7.26 6.12-10.7 9.56-2.36 2.15-4.77 4.23-7.19 6.31-0.628 0.55-1.26 1.1-1.9 1.67-4.67 4.02-4.67 4.02-6.91 4.02-0.247 0.639-0.495 1.28-0.75 1.94-1.58 2.61-2.42 2.35-5.25 3.06-0.699 1.32-1.37 2.65-2 4-0.99 0.33-1.98 0.66-3 1-0.33 0.99-0.66 1.98-1 3-1.32 0.686-2.66 1.35-4 2-1.53 1.57-1.53 1.57-2.88 3.38-2.71 3.29-5.51 5.34-9.12 7.62-1.05 1.07-2.09 2.13-3.14 3.2-2.06 1.77-3.21 2.74-5.94 2.99-2.34-0.331-4.53-0.86-6.8-1.51-0.83-0.206-1.66-0.411-2.52-0.623-2.55-0.646-5.08-1.35-7.61-2.06-0.742-0.207-1.48-0.413-2.25-0.626-4.23-1.19-8.43-2.45-12.6-3.73-11.3-3.42-22.7-6.28-34.2-8.84-5.17-1.15-10.3-2.39-15.4-3.8-7.45-2.05-15-3.66-22.5-5.25-5.08-1.08-10-2.32-15-3.75-4.2-1.02-8.41-1.98-12.6-2.94-2.22-0.509-4.44-1.02-6.66-1.53-1.11-0.253-2.22-0.506-3.37-0.767-2.2-0.505-4.4-1.02-6.6-1.54-7.77-1.83-15.6-3.38-23.4-4.79-21.5-3.91-21.5-3.91-26.8-5.47-4.29-1.2-8.57-1.84-13-2.47-8.68-1.25-8.68-1.25-12.7-2.5-5.69-1.52-11.5-1.93-17.3-2.5-2.54-0.257-5.08-0.516-7.62-0.777-1.7-0.17-1.7-0.17-3.44-0.344-3.52-0.395-7-0.901-10.5-1.44-23.1-3.48-52.3-7-74.9 1.06-2.33 0.618-4.66 1.22-7 1.81-13 2.82-13 2.82-24 9.19-1.34 0.539-2.7 1.03-4.06 1.5-14 5.42-28.6 14.6-38.9 25.5-0.949 0.763-1.9 1.53-2.88 2.31-3.17 2.58-5.68 5.59-8.32 8.7-2.24 2.47-4.7 4.52-7.32 6.57-1.72 1.65-2.46 3.28-3.48 5.42-2.5 2.75-2.5 2.75-5 5h-2c-0.251 0.717-0.503 1.43-0.762 2.17-1.35 3.08-3.01 5.41-5.05 8.08-3.52 4.73-6.5 9.51-9.19 14.8-0.516 0.99-1.03 1.98-1.56 3-0.474 0.99-0.949 1.98-1.44 3-0.443 0.893-0.443 0.893-0.895 1.8-16.5 34.9-17 76.1-13.8 114 0.0881 1.05 0.0881 1.05 0.178 2.12 0.772 9 2.05 17.8 3.8 26.7 1.01 5.13 1.82 10.3 2.61 15.4 0.677 4.23 1.67 8.09 3.1 12.1 0.435 1.72 0.851 3.45 1.25 5.19 2.14 8.74 4.98 17.3 7.75 25.8 0.364 1.13 0.727 2.26 1.1 3.43 5.57 17.1 12.6 33.4 21.5 49 2.25 4.05 4.41 8.15 6.57 12.2 1.43 2.7 2.88 5.36 4.46 7.98 1.37 2.29 2.5 4.59 3.58 7.03 0.344 0.767 0.688 1.53 1.04 2.32 0.77 1.99 0.77 1.99 0.77 3.99h2c0.392 0.844 0.392 0.844 0.791 1.71 4.75 10.2 9.58 20.2 15.3 29.9 4.91 8.59 9.1 17.6 13.3 26.5 3.57 7.65 7.34 15 11.6 22.3 3.92 6.71 7.45 13.6 11 20.5 0.378 0.721 0.755 1.44 1.14 2.19 1.11 2.12 2.2 4.25 3.29 6.38 0.33 0.63 0.66 1.26 1 1.91 2.24 4.42 3.5 8.68 4.56 13.5h2c0.437 0.891 0.437 0.891 0.883 1.8 2.76 5.57 5.64 11 8.69 16.5 1.66 3.18 3.02 6.44 4.43 9.74 1.19 2.47 2.39 4.93 3.62 7.38 0.345 0.688 0.69 1.38 1.04 2.08 2.54 5.05 5.17 10.1 7.83 15 5.97 11.2 11.6 22.6 17 34.1 3.01 6.42 6.18 12.7 9.56 19 5.29 9.79 10.1 19.8 14.9 29.8 6.21 13.1 12.5 26.2 20 38.6 1.02 1.99 2.02 3.99 3 6 0.791 1.58 1.58 3.17 2.38 4.75 4.98 9.96 9.96 19.9 14.9 29.9 0.413 0.824 0.825 1.65 1.25 2.5 1.09 2.18 2.17 4.36 3.25 6.54 3.98 8.02 8.07 16 12.3 23.8 2.02 3.8 3.95 7.64 5.86 11.5 3.92 7.91 7.86 15.8 12.1 23.6 3.37 6.23 6.4 12.6 9.35 19 2.1 4.53 4.33 8.99 6.59 13.4 0.834 1.67 1.67 3.33 2.5 5 0.414 0.826 0.828 1.65 1.25 2.5 0.824 1.65 1.64 3.31 2.46 4.96 2.08 4.22 4.24 8.37 6.54 12.5 2.72 4.93 5.12 9.97 7.5 15.1 3.46 7.4 7.15 14.6 11 21.8 3.48 6.55 6.68 13.2 9.79 19.9 1.8 3.89 3.71 7.57 5.96 11.2 1.01 1.99 2.01 3.99 3 6 0.602 1.17 1.2 2.34 1.82 3.54 0.621 1.21 1.24 2.43 1.86 3.64 0.48 0.923 0.48 0.923 0.971 1.87 1.45 2.86 2.34 4.7 2.34 7.95-10.4-8.4-18.5-18.9-26.6-29.4-4.21-5.42-8.41-10.8-13.1-15.8-5.13-5.58-9.44-11.7-13.7-17.9-1.8-2.58-3.57-4.92-5.81-7.13-3.3-3.35-6.2-6.93-9.13-10.6-3.86-4.8-7.74-9.55-11.8-14.2-6.2-7.03-12.2-14.2-17.9-21.7-3.13-4.14-6.4-8.07-9.94-11.9-4.04-4.35-7.68-8.86-11.2-13.6-3.65-4.82-7.49-9.45-11.4-14.1-2.85-3.41-5.62-6.87-8.38-10.3-5.22-6.53-10.5-13-15.9-19.4-4.75-5.69-9.27-11.5-13.8-17.4-6.36-8.31-12.9-16.5-19.7-24.4-6.62-7.71-6.62-7.71-6.62-10.3h-2c-1.44-1.74-2.8-3.54-4.12-5.38-0.814-1.11-1.63-2.22-2.45-3.34-0.409-0.558-0.818-1.12-1.24-1.69-1.67-2.25-3.43-4.42-5.19-6.6-2.81-3.48-5.52-7.02-8.19-10.6-3.66-4.92-7.48-9.69-11.4-14.4-4.32-5.27-8.46-10.6-12.4-16.2-2.39-3.28-4.88-6.46-7.39-9.64-0.69-0.875-0.69-0.875-1.39-1.77-0.935-1.18-1.87-2.37-2.81-3.55-2.38-3.01-4.75-6.03-7.11-9.05-0.434-0.549-0.869-1.1-1.32-1.66-3-3.86-3-3.86-3-6.09h-2c-0.986-1.41-1.96-2.82-2.88-4.28-1.8-2.78-3.84-5.37-5.87-7.97-0.431-0.559-0.862-1.12-1.31-1.69-3.44-4.44-6.96-8.8-10.5-13.1-1.4-1.93-1.4-1.93-1.4-3.93h-2c-0.956-1.37-1.9-2.75-2.8-4.16-2.27-3.46-4.86-6.69-7.39-9.97-1.17-1.53-2.34-3.05-3.52-4.58-0.568-0.739-1.14-1.48-1.72-2.24-6.59-8.6-13-17.3-19.4-26.1-3.33-4.52-6.67-9.02-10-13.5-5.94-7.9-11.7-15.9-17.4-24-1.23-1.77-2.48-3.52-3.73-5.27-0.642-0.898-1.28-1.8-1.95-2.72l-1.78-2.47c-1.29-2.03-1.29-2.03-1.29-4.03h-2c-1.52-2.12-1.52-2.12-3.25-5-2.68-4.36-5.5-8.44-8.68-12.4-1.07-1.56-1.07-1.56-1.07-3.56h-2c-1.18-1.57-1.18-1.57-2.44-3.69-0.436-0.728-0.871-1.46-1.32-2.21l-1.24-2.11c-0.598-0.949-1.2-1.9-1.81-2.88-1.19-2.12-1.19-2.12-1.19-4.12h-2c-1.59-2.3-3.06-4.6-4.5-7-0.896-1.46-1.79-2.92-2.69-4.39-0.692-1.14-0.692-1.14-1.4-2.3-2.28-3.73-4.6-7.43-6.91-11.1-0.421-0.675-0.842-1.35-1.28-2.04-1.71-2.74-3.43-5.46-5.22-8.14v-3h-2c-0.352-0.655-0.704-1.31-1.07-1.98-2.7-5-5.47-9.94-8.37-14.8-3.86-6.57-7.21-13.3-10.6-20.2-0.562-1.06-1.12-2.13-1.7-3.23-1.3-2.77-1.3-2.77-1.3-5.77h-2c-4.44-9.64-8.65-19.3-12-29.3-0.978-2.91-2-5.67-3.41-8.41-2.37-4.86-3.96-9.94-5.65-15.1-0.351-1.04-0.703-2.08-1.06-3.16-1.77-5.33-3.31-10.6-4.44-16.1-0.606-2.72-1.55-5.31-2.43-7.95-0.83-3.67-1.57-7.36-2.32-11.1-0.38-2.82-0.38-2.82-1.68-3.95-0.354-2.14-0.657-4.29-0.938-6.44-0.559-4.13-1.15-8.19-2.06-12.2-1.7-7.98-2.22-16.2-3-24.3h-1c-1.26-23-1.46-45.8-0.125-68.8 0.0392-0.708 0.0784-1.42 0.119-2.14 0.75-13.2 0.75-13.2 2.45-19.1 0.734-2.7 1.23-5.42 1.74-8.17 0.206-1.1 0.411-2.2 0.623-3.34 0.419-2.27 0.836-4.54 1.25-6.81 1.26-6.73 2.83-13.2 4.94-19.7l1.06-3.47c0.655-2.12 1.31-4.23 1.96-6.35 0.87-2.84 1.71-5.7 2.54-8.55 1.2-4.02 2.7-7.8 4.44-11.6 2.03-4.51 4.02-9.01 5.81-13.6 3.67-9.24 7.68-18.5 13.2-26.8 1.32-2.09 2.2-4.26 3-6.59h2c0.263-0.88 0.526-1.76 0.797-2.67 1.18-3.26 2.56-5.76 4.45-8.64l1.88-2.87c0.619-0.929 1.24-1.86 1.88-2.82 0.557-0.837 1.11-1.67 1.69-2.54 1.01-1.51 2.02-3.01 3.03-4.52 1.07-1.63 2.06-3.32 3.03-5.01 0.619-0.959 0.619-0.959 1.25-1.94h2c0.388-1.09 0.388-1.09 0.783-2.21 4.02-9.21 12.7-16.5 19.7-23.5 0.898-0.898 1.8-1.8 2.72-2.72 5.1-5.07 10.3-9.93 15.8-14.6 0.95-0.831 1.9-1.66 2.88-2.52 7.63-6.52 15.7-12.1 24.1-17.5 1.02-0.663 2.03-1.33 3.08-2.01 8.91-5.76 18.1-10.7 27.6-15.4 2.53-1.25 5.04-2.53 7.54-3.82 7.05-3.52 14.5-6.13 21.9-8.79 1.56-0.566 3.12-1.14 4.67-1.73 4.67-1.79 9.36-3.34 14.2-4.73 0.733-0.213 1.47-0.426 2.22-0.646 17.8-5.13 35.7-8.47 54.1-10.9 0.857-0.117 1.71-0.233 2.6-0.353 0.766-0.101 1.53-0.203 2.32-0.307 1.79-0.173 1.79-0.173 2.77-1.34 2.19-0.231 4.38-0.396 6.58-0.535 0.673-0.0432 1.35-0.0864 2.04-0.131 2.21-0.139 4.42-0.269 6.63-0.396 1.14-0.0658 1.14-0.0658 2.3-0.133 19.2-1.1 37.9-0.823 57.1 0.633zm-347 266v5h1v-5h-1zm-1 11 1 2zm-1 22 1 3zm0 22v6h1v-6h-1zm8 70 1 2z" fill="#FBFCFE"/>
<path transform="translate(1026,448)" d="m0 0c4.68 4.42 4.68 4.42 6.26 7.24 2.77 4.39 6.48 7.89 10.1 11.6 3.07 3.21 5.38 5.8 6.65 10.2h2c1.19 1.36 1.19 1.36 2.56 3.31 6 8.26 12.6 16 19.5 23.5 4.95 5.57 4.95 5.57 4.95 8.19h2c1.19 1.49 2.3 3.05 3.38 4.62 4.26 6.02 8.95 11.6 13.8 17.1 0.944 1.09 1.89 2.17 2.83 3.26 0.487 0.555 0.974 1.11 1.48 1.68 3.52 4.09 3.52 4.09 3.52 6.32h2c4 5.41 4 5.41 4 8 0.99 0.33 1.98 0.66 3 1 1.88 2.05 1.88 2.05 4 4.75 0.795 0.998 1.59 2 2.41 3.02 0.633 0.794 0.633 0.794 1.28 1.6 2.19 2.71 4.48 5.35 6.75 8 4.15 4.86 8.07 9.84 11.9 14.9 3.35 4.41 7 8.47 10.8 12.5 1.81 2.22 1.81 2.22 2.88 4.94 0.464 1.13 0.464 1.13 0.938 2.28 0.99 0.33 1.98 0.66 3 1 1.63 1.93 3.14 3.84 4.62 5.88 0.894 1.19 1.79 2.39 2.69 3.58 0.45 0.599 0.9 1.2 1.36 1.81 1.92 2.51 3.93 4.93 5.95 7.36 2.96 3.58 5.74 7.22 8.44 11 3.1 4.34 6.45 8.29 10 12.2 7.9 8.91 7.9 8.91 7.9 12.1 0.99 0.33 1.98 0.66 3 1 0.685 1.32 1.35 2.66 2 4 0.701 0.701 1.4 1.4 2.12 2.12 1.88 1.88 1.88 1.88 1.88 3.88h2c0.916 1.34 1.82 2.69 2.69 4.05 2.13 3.17 4.58 6.09 6.98 9.05 1.64 2.04 3.26 4.09 4.87 6.16 5.29 6.81 10.7 13.5 16.4 19.9 3 3.44 5.54 6.98 8.06 10.8 2.35 2.91 4.76 5.76 7.17 8.61 1.83 2.39 1.83 2.39 1.83 4.39h2c0.98 1.4 1.95 2.81 2.87 4.25 1.88 2.9 4.02 5.59 6.13 8.31 0.425 0.551 0.851 1.1 1.29 1.67 1.97 2.55 3.96 5.07 6.02 7.54 1.69 2.22 1.69 2.22 1.69 4.22 0.99 0.33 1.98 0.66 3 1 0.921 1.33 1.83 2.67 2.68 4.04 2.32 3.45 5.05 6.59 7.71 9.79 1.61 2.17 1.61 2.17 1.61 4.17h2c1.09 1.44 1.09 1.44 2.38 3.56 3.49 5.46 7.54 10.4 11.7 15.4 3.96 4.85 3.96 4.85 3.96 7.05h2c1.19 1.58 1.19 1.58 2.56 3.81 2.36 3.67 4.88 7.03 7.69 10.4 3.83 4.61 7.35 9.35 10.8 14.2 2.34 3.32 4.73 6.6 7.19 9.84 0.544 0.715 1.09 1.43 1.65 2.17 1.06 1.38 2.12 2.77 3.19 4.14 2.56 3.36 4.62 6.35 5.93 10.4h2c1.3 1.69 1.3 1.69 2.75 4 2.9 4.49 6.01 8.75 9.25 13 2.28 3.04 4.56 6.08 6.84 9.12 1.27 1.69 2.54 3.37 3.83 5.04 2.8 3.65 5.34 7.37 7.77 11.3 2.2 3.51 4.48 6.83 7.06 10.1 3.25 4.07 6 8.34 8.75 12.8 2.2 3.47 4.56 6.8 6.93 10.2 2.68 3.83 5.25 7.74 7.82 11.6 1.9 2.82 3.87 5.58 5.87 8.34 2.43 3.43 4.14 6.48 5.12 10.6h2c0.326 0.592 0.652 1.18 0.988 1.79 1.89 3.42 3.77 6.82 5.82 10.1 1.19 2.06 1.19 2.06 1.19 4.06h2c0.291 0.545 0.583 1.09 0.883 1.65 2.22 4.09 4.53 8.02 7.18 11.8 2.36 3.49 4.12 6.91 5.75 10.8 2.51 5.72 5.43 11.3 8.25 16.8 1.27 2.52 2.51 5.04 3.76 7.56 1.19 2.39 2.38 4.62 3.81 6.88 1.64 2.9 2.56 5.82 3.56 8.98 1.4 4.23 3.13 8.33 4.81 12.5 4.26 10.5 8.09 20.9 11.1 31.8 0.856 3.1 0.856 3.1 1.98 5.77 0.969 2.45 1.49 4.74 1.95 7.33 0.485 2.73 1.06 5.23 1.96 7.86 1.23 3.8 1.92 7.58 2.6 11.5 0.439 4.73 0.439 4.73 2.44 8.69 0.529 3 1 5.99 1.44 9 0.132 0.903 0.264 1.81 0.4 2.74 9.03 62.6 5.45 126-17.8 185-0.336 0.86-0.673 1.72-1.02 2.61-3.22 7.99-7.02 15.6-10.9 23.3-1.06 2.1-2.1 4.21-3.14 6.32-3.67 7.47-7.49 14.7-11.9 21.8-0.465 0.786-0.931 1.57-1.41 2.38-0.442 0.74-0.884 1.48-1.34 2.24-0.387 0.652-0.773 1.3-1.17 1.98-0.356 0.461-0.712 0.923-1.08 1.4h-2c-0.247 0.887-0.495 1.77-0.75 2.69-1.3 3.45-2.86 5.55-5.25 8.31-0.66 0.99-1.32 1.98-2 3h-2c-0.222 0.692-0.443 1.38-0.672 2.1-1.66 3.62-3.98 6.38-6.58 9.34-0.52 0.599-1.04 1.2-1.58 1.81-4.12 4.68-8.41 9.19-12.8 13.6-0.604 0.613-1.21 1.23-1.83 1.86-4.3 4.27-4.3 4.27-6.55 4.27-0.268 0.639-0.536 1.28-0.812 1.94-1.19 2.06-1.19 2.06-4.19 3.06-0.33 0.99-0.66 1.98-1 3-1.32 0.685-2.66 1.35-4 2-1.36 1.31-2.69 2.65-4 4-3.53 2.95-7.21 5.54-11.1 8.06-4.14 2.72-4.14 2.72-8.14 5.64-2.21 1.59-4.13 1.93-6.8 2.3-0.33 0.99-0.66 1.98-1 3-1.84 1.3-1.84 1.3-4.23 2.59-1.3 0.71-1.3 0.71-2.63 1.43-0.914 0.486-1.83 0.972-2.77 1.47-0.891 0.486-1.78 0.972-2.7 1.47-4.81 2.6-9.61 4.96-14.7 7.03-1.46 0.621-2.92 1.24-4.38 1.87-9.15 3.88-18.3 7.65-27.6 11.1-1.36 0.538-1.36 0.538-2.75 1.09-6.27 2.42-12.5 3.94-19.1 5.2-3.09 0.599-3.09 0.599-5.56 1.7-3.53 1.37-7.14 1.91-10.9 2.51-1.44 0.237-2.89 0.477-4.33 0.719-0.735 0.123-1.47 0.246-2.23 0.373-2.11 0.392-4.16 0.887-6.24 1.4-6.87 1.57-13.9 1.96-21 2.57-2.14 0.187-4.28 0.376-6.42 0.571-1.92 0.174-3.84 0.342-5.76 0.51-2.72 0.0523-2.72 0.0523-3.82 1.36-6.83 1.11-13.8 1.15-20.7 1.13-0.981 9.57e-4 -1.96 0.00191-2.97 0.0029-2.06 6.76e-4 -4.12-0.00114-6.18-0.00534-3.12-0.00535-6.24-3.77e-5 -9.37 0.00635-2.01-6.61e-4 -4.03-0.00194-6.04-0.00391-1.38 0.00304-1.38 0.00304-2.78 0.00613-16.8-0.0598-16.8-0.0598-21-2.14-1.44-0.197-2.89-0.344-4.34-0.465-1.35-0.115-1.35-0.115-2.72-0.233-0.971-0.0792-1.94-0.158-2.94-0.24-0.994-0.085-1.99-0.17-3.01-0.258-4.26-0.365-8.53-0.72-12.8-1.08-3.11-0.26-6.21-0.526-9.32-0.792-0.973-0.0792-1.95-0.158-2.95-0.24-1.34-0.115-1.34-0.115-2.71-0.233-0.791-0.0658-1.58-0.132-2.4-0.199-1.82-0.265-1.82-0.265-2.82-1.27-2.15-0.277-4.3-0.493-6.46-0.684-0.658-0.0604-1.32-0.121-1.99-0.183-2.82-0.258-5.64-0.507-8.45-0.756-11.9-1.06-23.5-2.63-35.1-5.38-2.65-0.625-5.29-1.25-7.94-1.88-0.733-0.173-1.47-0.347-2.22-0.525-5.9-1.39-11.8-2.72-17.7-4.02-7.11-1.57-14.2-3.19-21.3-4.82-4.32-0.99-8.65-1.93-13-2.77-4-0.786-7.86-1.85-11.8-2.98-3.82-0.879-7.66-1.69-11.5-2.5-6.24-1.32-12.4-2.69-18.5-4.5-1.95-0.474-3.91-0.933-5.88-1.38-1.12-0.257-2.25-0.513-3.41-0.777-1.23-0.28-2.45-0.559-3.72-0.848-8.25-1.89-16.5-3.83-24.6-6.06-6.29-1.71-12.6-3-19-4.23-2.82-0.588-5.48-1.28-8.22-2.15-4.44-1.41-8.95-2.45-13.5-3.44-7.01-1.53-14-3.11-21-4.75-0.889-0.206-1.78-0.412-2.69-0.625-4.17-0.986-8.03-2.11-12-3.75-1.66-0.373-3.33-0.707-5-1-2.59-0.453-4.86-0.94-7.29-1.95-2.84-1.11-5.6-1.82-8.57-2.49-1.12-0.255-2.23-0.51-3.38-0.773-1.74-0.391-1.74-0.391-3.51-0.789-1.71-0.391-1.71-0.391-3.46-0.789-6.26-1.43-6.26-1.43-12.5-2.77-4.61-0.943-7.32-1.61-10.3-5.44 3.13-4.26 6.7-7.92 11-11h2c0.266-0.602 0.531-1.2 0.805-1.82 1.24-2.26 2.33-3.39 4.32-4.99 0.625-0.516 1.25-1.03 1.89-1.56 0.654-0.536 1.31-1.07 1.98-1.62 1.28-1.1 2.55-2.2 3.81-3.31 0.665-0.581 1.33-1.16 2.02-1.76 2.43-2.16 4.83-4.36 7.23-6.55 3.82-3.45 7.72-6.45 11.9-9.38 1.01-0.989 2.01-1.99 3-3 3.66-3.29 7.38-6.51 11.2-9.62 2.77-2.34 5.26-4.81 7.81-7.38 1.95-1.85 3.9-3.68 5.88-5.5 0.791-0.729 0.791-0.729 1.6-1.47 2.69-2.45 5.38-4.75 8.4-6.78 3.19-2.3 5.27-4.67 7.72-7.69 1.86-2.07 4-3.2 6.4-4.56 0.804-0.804 1.61-1.61 2.44-2.44 6.52-6.52 6.52-6.52 10.6-6.6 6.82 0.749 13.3 2.2 20 3.92 1.02 0.257 2.05 0.513 3.1 0.777 5.39 1.37 10.7 2.91 15.9 4.72 2.36 0.771 4.72 1.27 7.16 1.69 2.58 0.444 4.78 0.95 7.22 1.94 2.62 1.04 5 1.51 7.78 1.94 3.42 0.585 6.61 1.26 9.88 2.44 4.43 1.57 8.93 2.67 13.5 3.75 1.08 0.256 1.08 0.256 2.17 0.517 3.29 0.763 6.5 1.4 9.85 1.85 3.33 0.504 6.16 1.44 9.35 2.51 1.94 0.493 3.9 0.96 5.85 1.4 1.65 0.376 1.65 0.376 3.33 0.76 1.7 0.384 1.7 0.384 3.44 0.775 6.61 1.5 13.2 3.01 19.8 4.68 4.07 1.03 8.11 1.89 12.3 2.5 5.21 0.77 5.21 0.77 6.31 1.88 2.33 0.372 4.66 0.698 7 1 6.89 0.889 6.89 0.889 8 2 2.91 0.498 5.82 0.95 8.75 1.38 5.59 0.846 11.1 1.73 16.6 3.06 13.5 3.25 27 5.69 40.9 6.91 4.87 0.434 9.54 1.12 14.3 2.21 4.47 0.8 9.01 0.95 13.5 1.19 2.91 0.246 2.91 0.246 4.91 1.25 9.72 1.14 19.5 1.19 29.3 1.19 2.27 0.0022 4.54 0.0205 6.8 0.0393 8.76 0.0334 17.3-0.275 25.9-2.22 0.33-0.33 0.66-0.66 1-1 2.46-0.469 4.91-0.899 7.38-1.31 6.88-1.23 13.1-3.07 19.6-5.69 1.01-0.358 2.03-0.717 3.07-1.09 8.56-3.07 16.2-7.22 23.9-11.9 1.22-0.729 2.45-1.46 3.67-2.19 6.61-3.83 6.61-3.83 12.3-8.81 1.07-0.949 2.16-1.89 3.25-2.81 0.612-0.523 1.22-1.05 1.86-1.59 1.22-1.03 2.46-2.06 3.7-3.08 3.61-2.99 6.62-6.12 9.6-9.73 1.76-1.97 3.65-3.64 5.66-5.35 3.43-2.92 6.15-5.9 8.94-9.44 1.15-1.35 1.15-1.35 2.32-2.72 2.85-3.41 5.34-7.02 7.8-10.7 0.429-0.63 0.859-1.26 1.3-1.91 2.72-4.08 4.77-8.09 6.57-12.7h2c0.117-0.875 0.235-1.75 0.355-2.65 0.632-3.28 1.59-5.87 2.96-8.91 5.78-13.5 9.44-27.9 10.5-42.6 0.211-1.86 0.211-1.86 1.21-3.86 1.14-9.9 1.16-19.9 1.12-29.8-0.00183-1.04-0.00183-1.04-0.00369-2.11 1.11-17 1.11-17-2.12-33.1-0.268-1.88-0.488-3.76-0.684-5.64-0.123-1.15-0.246-2.31-0.373-3.49-0.126-1.21-0.251-2.42-0.381-3.67-0.949-9.11-2.09-18.1-3.56-27.2h-1c-0.166-0.907-0.166-0.907-0.335-1.83-0.509-2.76-1.02-5.53-1.54-8.29-0.174-0.951-0.348-1.9-0.527-2.88-0.904-4.82-1.96-9.36-3.6-14-0.489-1.69-0.967-3.38-1.44-5.07-0.255-0.915-0.51-1.83-0.773-2.77-0.529-1.91-1.06-3.81-1.58-5.72-0.383-1.37-0.383-1.37-0.773-2.76-0.228-0.826-0.456-1.65-0.691-2.5-0.729-2.42-0.729-2.42-2.75-5.17-0.484-1.63-0.916-3.28-1.31-4.94-1.67-6.3-4.04-12.1-6.69-18.1-0.371-0.842-0.742-1.68-1.12-2.55-1.28-2.9-2.58-5.8-3.88-8.7-0.415-0.935-0.83-1.87-1.26-2.83-2.17-4.8-4.48-9.3-7.35-13.7-3.07-4.83-5.83-9.84-8.64-14.8-0.637-1.11-1.27-2.21-1.93-3.35-0.606-1.07-1.21-2.14-1.84-3.25-0.549-0.965-1.1-1.93-1.67-2.92-1.38-2.99-1.93-5.59-2.32-8.85h-2c-0.385-0.832-0.385-0.832-0.779-1.68-1.17-2.53-2.35-5.05-3.53-7.57-0.404-0.873-0.808-1.75-1.22-2.64-0.396-0.844-0.793-1.69-1.2-2.56-0.361-0.775-0.723-1.55-1.09-2.35-1.2-2.26-2.62-4.16-4.17-6.2-1.31-2.49-2.58-4.97-3.81-7.5-0.354-0.716-0.708-1.43-1.07-2.17-1.04-2.11-2.08-4.22-3.11-6.33-3.56-7.22-7.24-14.4-11-21.5-6.05-11.5-6.05-11.5-8.62-16.5-0.467-0.908-0.933-1.82-1.41-2.75-0.961-2.25-0.961-2.25-0.961-5.25h-2c-0.423-0.899-0.423-0.899-0.854-1.82-1.3-2.75-2.6-5.5-3.9-8.25-0.443-0.943-0.887-1.89-1.34-2.86-1.95-4.11-3.9-8.16-6.23-12.1-1.67-3-1.67-3-1.67-6h-2c-3-6.63-3-6.63-3-10h-2c-3-6.63-3-6.63-3-10h-2c-0.812-1.62-1.62-3.25-2.44-4.87-0.72-1.44-1.44-2.88-2.16-4.32-1.79-3.58-3.58-7.17-5.36-10.8-3.52-7.09-7.13-14.1-10.9-21.1-4.29-8.06-8.25-16.3-12.1-24.5-2.75-5.8-5.62-11.5-8.67-17.2-3.16-5.86-6.11-11.8-8.94-17.8-5.57-11.9-11.3-23.5-17.8-35-5.61-10-10.6-20.4-15.4-30.8-1.7-3.56-3.52-7.06-5.35-10.5-0.914-2.1-0.914-2.1-0.914-5.1h-2c-0.812-1.62-1.62-3.25-2.44-4.87-0.719-1.44-1.44-2.88-2.16-4.31-1.81-3.61-3.61-7.22-5.4-10.8-3.4-6.86-6.89-13.7-10.5-20.4-3.39-6.34-6.54-12.8-9.57-19.3-4.65-9.99-9.63-19.8-14.7-29.6-0.686-1.31-1.37-2.63-2.06-3.94-1.37-2.62-2.74-5.23-4.12-7.85-0.64-1.22-1.28-2.45-1.92-3.67-0.858-1.63-0.858-1.63-1.73-3.29-1.25-2.72-1.94-5.03-2.36-7.98h-2c-0.28-0.632-0.559-1.26-0.848-1.91-1.94-4.32-3.89-8.61-6.04-12.8-0.318-0.624-0.637-1.25-0.965-1.89-0.924-1.8-1.86-3.6-2.79-5.4-1.36-2.97-1.36-2.97-1.36-5.97h-2c-0.543-1.16-1.09-2.32-1.64-3.51-0.723-1.54-1.45-3.08-2.17-4.62-0.356-0.761-0.713-1.52-1.08-2.3-0.527-1.12-0.527-1.12-1.06-2.27-0.345-0.735-0.69-1.47-1.05-2.23-0.881-1.83-1.82-3.64-2.76-5.44-1.24-2.63-1.24-2.63-1.24-5.63h-2c-1.34-2.77-2.67-5.54-4-8.31-0.382-0.786-0.763-1.57-1.16-2.38-0.361-0.757-0.722-1.51-1.09-2.29-0.335-0.696-0.67-1.39-1.02-2.11-0.734-1.9-0.734-1.9-0.734-4.9h-2c-3-6.62-3-6.62-3-10h-2c-4.54-9.63-9.07-19.3-13.6-28.9-0.84-1.79-1.71-3.56-2.64-5.3-0.805-1.77-0.805-1.77-0.805-4.77zm341 727v5h1v-5h-1zm0 72 1 3z" fill="#FBFCFE"/>
<path transform="translate(790 700)" d="m0 0c1.95-0.0058 1.95-0.0058 3.93-0.0117 1.25 0.00129 2.51 0.00258 3.8 0.00391 1.13 0.00113 2.27 0.00226 3.43 0.00342 4.29 0.173 8.15 0.773 12.2 2.13 0.849 0.217 1.7 0.433 2.57 0.656 13.1 3.56 25.2 10.4 35.4 19.3 1.45 1.25 1.45 1.25 2.93 2.53 9.48 8.34 16.9 17.4 23.1 28.5 0.357 0.608 0.714 1.22 1.08 1.84 3.79 6.88 5.73 14.7 7.92 22.2 0.348 1.06 0.696 2.13 1.06 3.22 1.02 4.09 1.23 7.9 1.21 12.1 0.00191 0.773 0.00383 1.55 0.0058 2.34 0.00135 1.62-0.00228 3.25-0.0107 4.87-0.0107 2.47-7.53e-5 4.94 0.0127 7.41-0.00132 1.59-0.00388 3.17-0.00781 4.76 0.00405 0.729 0.0081 1.46 0.0123 2.21-0.0424 4.69-0.828 8.65-2.28 13.1-0.321 1.18-0.642 2.37-0.973 3.59-2.17 7.56-4.8 14.5-8.46 21.5-0.359 0.689-0.718 1.38-1.09 2.09-2.57 4.71-5.52 9.18-9.47 12.8h-2c-0.25 0.588-0.5 1.18-0.758 1.78-1.41 2.51-2.91 3.89-5.12 5.72-2.28 1.92-4.42 3.8-6.5 5.94-1.62 1.56-1.62 1.56-3.62 1.56-0.33 0.99-0.66 1.98-1 3-8.5 6-18.8 11.9-29.1 13.7-2.1 0.314-2.1 0.314-4.88 1.39-19.4 6.05-45.5 3.3-64-4.06-0.993-0.394-1.99-0.789-3.01-1.2-2.45-1.13-4.69-2.39-6.99-3.8-1.09-0.647-2.19-1.29-3.31-1.96-18-10.9-33.1-26.7-41.7-46-0.347-0.754-0.694-1.51-1.05-2.29-1.1-2.54-2.04-5.1-2.95-7.71-0.375-1.05-0.75-2.09-1.14-3.17-2.82-9.23-3.23-18.1-3.24-27.7-0.00161-1.24-0.00322-2.47-0.00488-3.75 0.0852-7.02 0.666-13.6 2.38-20.4 0.26-1.08 0.521-2.15 0.789-3.26 3.54-12.1 9.09-23.5 16.7-33.6 1.62-2.13 1.62-2.13 3.02-4.68 1.5-2.39 2.87-3.88 5.02-5.68 0.706-0.593 1.41-1.19 2.14-1.8 0.779-0.645 1.56-1.29 2.36-1.95 0.84-0.727 1.68-1.45 2.55-2.2 7.01-5.96 14.6-11.9 23.5-14.8 0.428-0.473 0.856-0.946 1.3-1.43 2.4-2.21 4.83-2.73 7.95-3.63 1.16-0.338 2.33-0.675 3.53-1.02 1.6-0.452 1.6-0.452 3.22-0.914 1.26-0.392 2.52-0.784 3.81-1.19 8.53-2.17 17.1-1.96 25.8-1.94zm-102 80.1 1 2zm-1 8 1 2z" fill="#FCFDFF"/>
<path transform="translate(573,1179)" d="m0 0c0.33 0.66 0.66 1.32 1 2h2c0.33 1.32 0.66 2.64 1 4-2-1.31-2-1.31-4-3v-3z" fill="#323234"/>
<path transform="translate(438,581)" d="m0 0c0.66 0.66 1.32 1.32 2 2-0.99 0.33-1.98 0.66-3 1 0.33-0.99 0.66-1.98 1-3z" fill="#000002"/>
<path transform="translate(1024,445)" d="m0 0 2 1c-0.33 0.66-0.66 1.32-1 2-0.33-0.99-0.66-1.98-1-3z" fill="#000002"/>
<path transform="translate(1223,1516)" d="m0 0c3 1 3 1 3 1z" fill="#000002"/>
<path transform="translate(1104,1511)" d="m0 0c3 1 3 1 3 1z" fill="#000002"/>
<path transform="translate(433,585)" d="m0 0 1 2c-0.66-0.33-1.32-0.66-2-1 0.33-0.33 0.66-0.66 1-1z" fill="#000002"/>
<path transform="translate(375,235)" d="m0 0c3 1 3 1 3 1z" fill="#000002"/>
<path transform="translate(1166,1047)" d="m0 0 2 1z" fill="#000002"/>
<path transform="translate(430,587)" d="m0 0 2 1z" fill="#000002"/>
</svg>
